<svg xmlns="http://www.w3.org/2000/svg" viewBox="0 0 500 380" role="img" aria-label="MedMasters Collaborative">
  <title>MedMasters Collaborative</title>
  <style>@import url("https://cdn.jsdelivr.net/npm/@fontsource-variable/plus-jakarta-sans/index.css"); text { font-family: "Plus Jakarta Sans Variable", "Plus Jakarta Sans", system-ui, sans-serif; }</style>
  
  <!-- Mark, centered -->
  <g transform="translate(140, 25)">
    <g class="mm-mark">
    <g transform="translate(60, 0) rotate(8 0 130)">
      <circle cx="0" cy="20" r="10" fill="#0B1530"/>
      <path d="M 0,32 C -10,32 -16,36 -16,42 C -16,55 -13,68 -11,82 C -10,100 -12,118 -14,130 L 14,130 C 12,118 10,100 11,82 C 13,68 16,55 16,42 C 16,36 10,32 0,32 Z" fill="#0B1530"/>
    </g>
    <g transform="translate(100, 0)">
      <circle cx="0" cy="10" r="11" fill="#8B3A2E"/>
      <path d="M 0,22 C -11,22 -17,26 -17,34 C -17,52 -14,70 -12,86 C -11,108 -13,122 -15,132 L 15,132 C 13,122 11,108 12,86 C 14,70 17,52 17,34 C 17,26 11,22 0,22 Z" fill="#8B3A2E"/>
    </g>
    <g transform="translate(140, 0) rotate(-8 0 130)">
      <circle cx="0" cy="20" r="10" fill="#C9A14A"/>
      <path d="M 0,32 C -10,32 -16,36 -16,42 C -16,55 -13,68 -11,82 C -10,100 -12,118 -14,130 L 14,130 C 12,118 10,100 11,82 C 13,68 16,55 16,42 C 16,36 10,32 0,32 Z" fill="#C9A14A"/>
    </g>
  </g>
  </g>
  <!-- Wordmark, centered below -->
  <text x="250" y="270" font-size="62" font-weight="800" letter-spacing="-1.5" text-anchor="middle">
    <tspan fill="#0B1530">Med</tspan><tspan fill="#8B3A2E">Masters</tspan>
  </text>
  <text x="250" y="305" font-size="13" font-weight="700" letter-spacing="4.5" fill="#0B1530" opacity="0.75" text-anchor="middle">COLLABORATIVE</text>
</svg>